<svg viewBox="0 0 941.01 219.91" xmlns="http://www.w3.org/2000/svg"><g fill="#fff"><path d="m295.53 78.63c2.9 9.12 10.47 13.37 20.13 13.37 10.42 0 17.23-4.92 17.23-13.17 0-6.23-3.62-9.85-12.89-12l-15.06-3.62c-12.3-2.89-22.15-9.55-22.15-23.89 0-15 12.31-26.34 30.26-26.34 19.26 0 30.55 9.84 33.73 24.61h-15c-2.32-6.66-8-11.87-18.53-11.87-9.56 0-16.07 4.92-16.07 12.3 0 5.94 3.76 9.7 11.72 11.58l15.49 3.62c13.9 3.19 23 11.3 23 24.61 0 16.65-13.32 26.93-31.7 26.93-18.82 0-32.29-9.55-35.47-26.06z"/><path d="m453.94 103.24h-14.48v-6.08a22.91 22.91 0 0 1 -17.23 7.53c-14.62 0-22.58-9.7-22.58-23.89v-41.8h14.48v39.34c0 8 3.76 13.18 12 13.18a13.46 13.46 0 0 0 13.32-10.28v-42.24h14.48z"/><path d="m508.75 97.74c-2.9 3.62-9.27 7-16.36 7-18.82 0-29.83-15-29.83-33.59 0-18.38 11-33.58 29.83-33.58 7.09 0 13.46 3.33 16.36 6.95v-35.38h14.48v94.1h-14.48zm0-38.8a15.61 15.61 0 0 0 -13.9-8.54c-11.15 0-17.85 8.83-17.85 20.7s6.66 20.71 17.81 20.71a15.61 15.61 0 0 0 13.9-8.54z"/><path d="m545.31 127.86 9.12-22.86-24.9-66h15.47l16.8 47.34 16.52-47.34h14.91l-33.87 88.89z"/><path d="m302.19 214.49h-15.05v-88.89h15.05z"/><path d="m316.48 150.21h14.52v6.08a23.27 23.27 0 0 1 17.37-7.53c14.62 0 22.73 9.7 22.73 23.89v41.84h-14.52v-39.38c0-8-3.91-13.17-12.16-13.17a13.62 13.62 0 0 0 -13.42 10.28v42.27h-14.52z"/><path d="m386.69 161.69h-10.13v-11.48h10.13v-17.21h14.48v17.23h14.48v11.48h-14.48v33.84c0 5.21 2.9 7.53 7.67 7.53a15.44 15.44 0 0 0 8.25-2.61v13.17c-2.46 1.45-6.37 2.32-10.85 2.32-11.44 0-19.55-6.08-19.55-18.82z"/><path d="m478.87 194.51c-2.17 12.74-11.59 21.43-27.08 21.43-18 0-30.4-13.61-30.4-33.44 0-19.26 12.6-33.74 30.11-33.74 18.1 0 27.95 12.89 27.95 31.71v5.21h-43.87c.43 11.29 6.95 18.1 16.21 18.1 6.95 0 12.17-3 13.76-9.27zm-42.87-19.4h29.1c-.14-7.81-4.63-14.18-13.46-14.18-7.95 0-13.89 4.92-15.64 14.18z"/><path d="m524.8 164.83c-2-1.44-5.5-2.17-8.54-2.17-5.94 0-11.44 3.33-12.89 10.28v41.55h-14.47v-64.28h14.47v6.66c2.46-4.78 8.11-8.11 14.34-8.11 3.18 0 6.08.58 7.09 1.16z"/><path d="m532.22 150.21h14.48v6.08a23.3 23.3 0 0 1 17.37-7.53c14.63 0 22.73 9.7 22.73 23.89v41.84h-14.47v-39.38c0-8-3.91-13.17-12.16-13.17a13.62 13.62 0 0 0 -13.47 10.28v42.27h-14.48z"/><path d="m635.29 214.49v-3.62c-2.18 2.17-8.69 4.78-15.93 4.78-13.17 0-24-7.82-24-21 0-12.16 10.86-20.7 25-20.7 5.79 0 12.31 2 14.92 3.9v-5.21c0-6.51-4.06-11.58-12.31-11.58-5.79 0-9.41 2.46-11 7h-13.9c1.88-11 12-19.26 25.19-19.26 16.21 0 25.77 9 25.77 23.6v42.13zm0-22.44c-1.6-4.05-7.39-6.51-13.18-6.51-6.51 0-13.32 2.75-13.32 9.12s6.81 9.26 13.32 9.26c5.79 0 11.58-2.46 13.18-6.51z"/><path d="m718.32 150.21v64.29h-14.47v-52.79h-24.79v33.82c0 5.21 2.89 7.53 7.67 7.53a15.45 15.45 0 0 0 8.26-2.62v13.18c-2.46 1.45-6.37 2.32-10.86 2.32-11.44 0-19.55-6.08-19.55-18.82v-35.41h-10.13v-11.5h10.13v-17.21h14.48v17.23z"/><path d="m711.05 126a8.41 8.41 0 1 0 8.54 8.41 8.57 8.57 0 0 0 -8.54-8.41z"/><path d="m757.87 215.94c-18.09 0-30.55-13.9-30.55-33.59s12.46-33.59 30.55-33.59 30.55 13.9 30.55 33.59-12.42 33.59-30.55 33.59zm0-54.72c-10.42 0-16.07 9-16.07 21.13s5.65 21.14 16.07 21.14 16.07-9 16.07-21.14-5.64-21.13-16.07-21.13z"/><path d="m797.45 150.21h14.48v6.08a23.27 23.27 0 0 1 17.37-7.53c14.62 0 22.73 9.7 22.73 23.89v41.84h-14.48v-39.38c0-8-3.91-13.17-12.16-13.17a13.62 13.62 0 0 0 -13.46 10.28v42.27h-14.48z"/><path d="m900.51 214.49v-3.62c-2.17 2.17-8.69 4.78-15.92 4.78-13.18 0-24-7.82-24-21 0-12.16 10.86-20.7 25.05-20.7 5.79 0 12.31 2 14.91 3.9v-5.21c0-6.51-4-11.58-12.3-11.58-5.8 0-9.42 2.46-11 7h-13.95c1.89-11 12-19.26 25.19-19.26 16.22 0 25.77 9 25.77 23.6v42.13zm0-22.44c-1.59-4.05-7.38-6.51-13.17-6.51-6.52 0-13.32 2.75-13.32 9.12s6.8 9.26 13.32 9.26c5.79 0 11.58-2.46 13.17-6.51z"/><path d="m941 214.49h-14.46v-94.1h14.46z"/><path d="m362 50.42h-10.1v-11.42h10.1v-17.28h14.48v17.28h14.52v11.42h-14.49v33.84c0 5.22 2.89 7.53 7.67 7.53a15.52 15.52 0 0 0 8.25-2.6v13.17c-2.46 1.45-6.37 2.32-10.86 2.32-11.43 0-19.54-6.08-19.54-18.82z"/></g><path d="m0 0h157.14v219.91h-157.14z" fill="#0052cc"/><path d="m157.14 0h62.77v219.91h-62.77z" fill="#00cfda"/><path d="m157.14 85.42v57h-.21c0-30.45-37.72-55.86-61.75-56.6v-.39z" fill="#fff80c"/><path d="m0 134.49v-57h.21c.37 30.29 37.86 55.64 61.73 56.59v.39z" fill="#fff80c"/><path d="m157.14 0v85.42h-.2c0-47-35.08-85.19-78.35-85.19v-.23z" fill="#b12aff"/><path d="m0 77.51v-77.51h78.59v.23c-43.29 0-78.38 34.6-78.38 77.28z" fill="#00ee9b"/><path d="m0 219.91v-85.42h.2c0 47 35.08 85.19 78.35 85.19v.23z" fill="#b12aff"/><path d="m157.14 142.41v77.5h-78.59v-.23c43.29 0 78.38-34.6 78.38-77.27z" fill="#ff6139"/></svg>